<?xml version="1.0" encoding="utf-8"?>
<!-- Generator: Adobe Illustrator 27.1.0, SVG Export Plug-In . SVG Version: 6.00 Build 0)  -->
<svg version="1.1" id="Capa_1" xmlns="http://www.w3.org/2000/svg" xmlns:xlink="http://www.w3.org/1999/xlink" x="0px" y="0px"
	 viewBox="0 0 400.9 73.6" style="enable-background:new 0 0 400.9 73.6;" xml:space="preserve">
<style type="text/css">
	.st0{fill:#1D1D1B;}
	.st1{fill:url(#SVGID_1_);}
	.st2{fill:url(#SVGID_00000108275726042446621830000003690644609771015848_);}
	.st3{fill:#FFCFDF;}
	
		.st4{clip-path:url(#SVGID_00000072268212523454854890000006627076935224789179_);fill:url(#SVGID_00000063634630488796504340000005973650843112155271_);}
	
		.st5{clip-path:url(#SVGID_00000021814784458353785830000005111246360186902435_);fill:url(#SVGID_00000131337877590980667210000017656174301289579684_);}
	
		.st6{clip-path:url(#SVGID_00000181050281042726070370000008239368436777577088_);fill:url(#SVGID_00000088811740689992992050000006369106007147689874_);}
	
		.st7{clip-path:url(#SVGID_00000141441705820154997090000017739638737737879740_);fill:url(#SVGID_00000119077443263513067730000001026042033033395892_);}
	
		.st8{clip-path:url(#SVGID_00000103237393520746474390000017317783356355020437_);fill:url(#SVGID_00000052819846196548691120000008255056269534921354_);}
	.st9{fill:#FFFFFF;}
	
		.st10{clip-path:url(#SVGID_00000128458688484998658740000012716418468233435301_);fill:url(#SVGID_00000181054344321688979900000017019889023438571947_);}
	.st11{clip-path:url(#SVGID_00000109004937892227349990000009754796128706152068_);fill:#FFFFFF;}
	.st12{clip-path:url(#SVGID_00000181078962936653725220000018090527488873966214_);fill:#FFFFFF;}
	.st13{clip-path:url(#SVGID_00000025402920341775801000000008221550868251072959_);fill:#FFFFFF;}
	.st14{clip-path:url(#SVGID_00000120521672460302511560000006160049228872917674_);fill:#FFFFFF;}
	.st15{clip-path:url(#SVGID_00000129197027982399757330000007324996390951469965_);fill:#1D1D1B;}
	.st16{clip-path:url(#SVGID_00000098902579536365805100000003438438065907149718_);fill:#1D1D1B;}
	.st17{fill:url(#SVGID_00000023248910345195605620000017384866312463176623_);}
	.st18{clip-path:url(#SVGID_00000032637370462718700200000008025783829500869513_);fill:#1D1D1B;}
	.st19{clip-path:url(#SVGID_00000072984105377594790750000007560486405453192876_);fill:#1D1D1B;}
	.st20{fill:url(#SVGID_00000013891885673865330230000016666852082560697758_);}
	.st21{clip-path:url(#SVGID_00000050636798345840436900000013977800333934836655_);fill:#FFFFFF;}
	.st22{clip-path:url(#SVGID_00000160161021482890338930000005049201799923628170_);fill:#FFFFFF;}
	.st23{clip-path:url(#SVGID_00000135681693505113983300000001495172031475591064_);fill:#FFFFFF;}
	.st24{clip-path:url(#SVGID_00000114761919891753591590000011246751651885320854_);fill:#FFFFFF;}
	
		.st25{clip-path:url(#SVGID_00000078043145039919430130000010668122200550116022_);fill:url(#SVGID_00000001628506186573210650000018129483380574865330_);}
	
		.st26{clip-path:url(#SVGID_00000122713637907927979250000001887202445504054713_);fill:url(#SVGID_00000130632693538918965190000008906889031310806406_);}
	
		.st27{clip-path:url(#SVGID_00000036944684076380169280000001484916423716774786_);fill:url(#SVGID_00000060022653588452808680000007540421778424244654_);}
	
		.st28{clip-path:url(#SVGID_00000007409457438834369680000017066644157679826873_);fill:url(#SVGID_00000110436019297179029650000002172856402342449304_);}
	
		.st29{clip-path:url(#SVGID_00000117674328546246716490000015456321741912765342_);fill:url(#SVGID_00000019643974132989492940000005724906417651978121_);}
	
		.st30{clip-path:url(#SVGID_00000155119946534472032150000011414886849017272475_);fill:url(#SVGID_00000108993271344721703640000005583892242298643337_);}
	.st31{fill:#AB0BFF;}
	.st32{fill:#F2295F;}
	.st33{fill:#D9D9D9;}
</style>
<g>
	<defs>
		<path id="SVGID_00000056404410548891129500000007529201377370908552_" d="M69.6,53.5c2.6-5.1,4-10.9,4-16.7c0-5-1-9.8-2.9-14.3
			c-1.9-4.4-4.5-8.3-7.9-11.7c-3.4-3.4-7.3-6-11.7-7.9C46.6,1,41.8,0,36.8,0S27,1,22.5,2.9c-4.4,1.9-8.3,4.5-11.7,7.9
			c-3.4,3.4-6,7.3-7.9,11.7C1,27,0,31.8,0,36.8c0,5,1,9.8,2.9,14.3c1.9,4.4,4.5,8.3,7.9,11.7c3.4,3.4,7.3,6,11.7,7.9
			c4.5,1.9,9.4,2.9,14.3,2.9c7.7,0,15-2.3,21.3-6.8l11.6,2.6c1.1,0.2,2.2-0.1,3-0.9c0.8-0.8,1-2,0.7-3L69.6,53.5z M70.7,66.6
			c-0.1,0.1-0.2,0.2-0.4,0.1l-12.8-2.8L57,64.3c-5.9,4.3-12.9,6.6-20.2,6.6C18,70.9,2.7,55.6,2.7,36.8c0-4.5,0.9-8.9,2.5-12.8
			c0.1,0.1,0.2,0.2,0.2,0.2c1.4,1.2,3.7,1.3,5.4,0.3c1.5-0.9,2.5-2.2,3.5-3.4c0,0,0,0,0,0c0,0,0,0,0,0c3.6-5,8.6-8.5,14.4-10.3
			c3.9-1.2,7.8-1.4,11.7-0.9c-4.1,0.4-7.6,1.7-9.5,2.4c0,0-4.4,1.6-5.6,4.6c-0.4,1.1-0.3,2.3,0.3,3.4c0.9,1.7,3.3,2.4,5.2,2.1
			c0.2-0.1,0.6-0.1,1.3-0.4c0.6-0.2,1.1-0.3,1.3-0.4c0.6-0.2,1.1-0.4,1.2-0.4c0.5-0.2,1.3-0.4,2.8-0.7c1.8-0.6,3.8-0.7,6.2-0.3
			c0.8,0.2,1.5,0.5,2.2,0.9c1.3,0.6,2.7,1.2,4.4,1.4c0.6,0.1,1.3,0.1,2,0.2c0.3,0,0.7,0,1.1,0.1c2.4,0.2,5,0.6,7,2.5
			c0.2,0.1,0.3,0.3,0.5,0.5c0,0,0,0,0,0c0,0,0,0,0,0c0.9,0.9,1.5,2.2,2,3.6C64.2,33.1,64.5,37,64,41c-1.5,10.6-9.1,19.5-19.4,22.5
			c-7,2.1-14.5,1.4-21-2.1c-6.5-3.5-11.2-9.3-13.3-16.3c-0.9-3.2-1.3-6.4-1.1-9.7c0,0,0,0,0,0c0-0.1,0-0.1,0-0.2c0,0,0,0,0,0
			c0,0,0,0,0,0c0-0.1,0.1-0.3,0.1-0.9c0.1-1.2,0.1-1.6,0.3-2.4c0.1-0.4,0.1-0.3,0.2-0.7c0.3-1.2,0.2-1.6,0.4-1.8c0,0,0,0,0,0
			c0,0,0-0.1,0-0.1c0,0,0-0.1,0-0.1c0,0,0-0.1,0-0.1c0,0,0-0.1,0-0.1c0,0,0-0.1,0-0.1c0,0,0-0.1-0.1-0.1c0,0,0-0.1-0.1-0.1
			c0,0-0.1-0.1-0.1-0.1c0,0-0.1-0.1-0.1-0.1c0,0-0.1,0-0.1-0.1c0,0-0.1,0-0.1-0.1c0,0-0.1,0-0.1,0c0,0,0,0-0.1,0c0,0,0,0,0,0
			c0,0,0,0-0.1,0c-0.1,0-0.1,0-0.2,0c0,0,0,0,0,0c0,0,0,0-0.1,0c0,0,0,0,0,0c-0.1,0-0.1,0-0.2,0c0,0,0,0-0.1,0c0,0-0.1,0-0.1,0
			c0,0,0,0-0.1,0c0,0-0.1,0-0.1,0.1c0,0,0,0-0.1,0c0,0-0.1,0.1-0.1,0.1c0,0,0,0,0,0c-0.1,0.1-0.2,0.2-0.2,0.3c0,0,0,0,0,0.1
			C8,29,8,29,8,29c-1.5,5.5-1.5,11.2,0.1,16.7c2.3,7.6,7.4,13.9,14.4,17.7c7,3.8,15.1,4.6,22.7,2.3c11.1-3.3,19.4-12.9,21-24.4
			c0.6-4.3,0.3-8.6-1-12.7c0,0,0,0,0,0c0,0,0,0,0,0c-0.6-1.8-1.4-3.3-2.5-4.5c-3-3.3-7.1-3.6-10.1-3.8c-0.7,0-1.3-0.1-1.8-0.2
			c-1.4-0.2-2.6-0.7-3.9-1.2c-0.1,0-0.2-0.1-0.3-0.1c0,0-0.1,0-0.1,0c-0.1,0-0.2-0.1-0.2-0.1c0,0-0.1,0-0.1-0.1
			c-0.1,0-0.1-0.1-0.2-0.1c-0.1,0-0.1,0-0.2-0.1c-0.1,0-0.1-0.1-0.2-0.1c-0.1,0-0.1,0-0.2-0.1c-0.1,0-0.1-0.1-0.2-0.1
			c-0.1,0-0.1,0-0.2-0.1c-0.1,0-0.2-0.1-0.2-0.1c-0.1,0-0.1,0-0.2-0.1c-0.1,0-0.2-0.1-0.3-0.1c0,0-0.1,0-0.1,0
			c-0.1,0-0.3-0.1-0.4-0.1c0,0-0.1,0-0.1,0c-0.1,0-0.2-0.1-0.3-0.1c-0.1,0-0.1,0-0.2,0c-0.1,0-0.2,0-0.3-0.1c-0.1,0-0.1,0-0.2,0
			c-0.1,0-0.2,0-0.3,0c-0.1,0-0.1,0-0.2,0c-0.1,0-0.2,0-0.3,0c-0.1,0-0.1,0-0.2,0c-0.1,0-0.2,0-0.3,0c-0.1,0-0.1,0-0.2,0
			c-0.1,0-0.2,0-0.3,0c-0.1,0-0.1,0-0.2,0c0,0,0,0-0.1,0c-0.1,0-0.2,0-0.3,0c-0.1,0-0.1,0-0.2,0c-0.2,0-0.4,0-0.5,0c0,0,0,0,0,0
			c-1.5,0.2-3.2,0.6-5.1,1.3c-0.3,0.1-0.5,0.2-0.8,0.3c-1.1,0.4-2,0.8-3.1,1c-1.1,0.2-2.6-0.2-3-0.9c-0.3-0.5-0.3-1-0.1-1.5
			c0.6-1.5,3.1-2.9,4.2-3.3c3.5-1.3,12.8-4.6,20.3-0.1c0,0,0.1,0,0.1,0c0,0,0.1,0,0.1,0c0,0,0.1,0,0.1,0c0,0,0.1,0,0.1,0
			c0,0,0.1,0,0.1,0c0,0,0.1,0,0.1,0c0,0,0.1,0,0.1,0c0,0,0.1,0,0.1,0c0,0,0.1,0,0.1,0c0,0,0.1,0,0.1,0c0,0,0.1,0,0.1-0.1
			c0,0,0.1,0,0.1,0c0,0,0.1-0.1,0.1-0.1c0,0,0.1,0,0.1-0.1c0,0,0.1-0.1,0.1-0.1c0,0,0,0,0.1-0.1c0,0,0,0,0,0c0,0,0,0,0,0
			c0,0,0-0.1,0-0.1c0,0,0-0.1,0-0.1c0,0,0-0.1,0-0.1c0,0,0-0.1,0-0.1c0,0,0-0.1,0-0.1c0,0,0-0.1,0-0.1c0,0,0-0.1,0-0.1
			c0,0,0-0.1,0-0.1c0,0,0-0.1,0-0.1c0,0,0-0.1,0-0.1c0,0,0-0.1,0-0.1c0,0,0-0.1-0.1-0.1c0,0,0-0.1-0.1-0.1c0,0-0.1-0.1-0.1-0.1
			c0,0-0.1,0-0.1-0.1c0,0-0.1,0-0.1-0.1c-5.2-3.5-11.2-5.2-17.2-5.1c-2.7,0.1-5.4,0.5-8,1.3c-6.4,1.9-11.8,5.8-15.6,11.1l0,0
			c-0.8,1.1-1.7,2.2-2.8,2.8C8.8,23,7.6,23,7,22.5c-0.3-0.3-0.5-0.7-0.5-1.1C12.1,10.3,23.6,2.7,36.8,2.7
			c18.8,0,34.1,15.3,34.1,34.1c0,5.6-1.4,11.1-4,16l-0.3,0.5l4.1,13C70.8,66.4,70.7,66.6,70.7,66.6z M17.8,38.6
			c-0.2-0.2-0.3-0.5-0.3-0.8c0-0.2,0-0.4,0-0.5c0.1-0.8,0.2-1.6,0.5-2.3c0.2-0.4,0.3-0.8,0.6-1.2c0.2-0.4,0.5-0.7,0.8-1
			c1-1.2,2.4-2.1,3.8-2.5c0.4-0.1,0.9-0.2,1.3-0.2c0.4,0,0.7-0.1,1.1,0c0.8,0,1.6,0.2,2.4,0.4c0.7,0.3,1.4,0.6,2,1.1
			c0.3,0.3,0.7,0.5,1,0.8c0.3,0.3,0.6,0.6,0.8,1c0.9,1.3,1.4,2.9,1.4,4.5c0,0.3-0.1,0.6-0.3,0.8c-0.2,0.2-0.5,0.3-0.8,0.3
			c-0.3,0-0.6-0.1-0.8-0.3c-0.2-0.2-0.3-0.5-0.3-0.8c0-0.3,0-0.5,0-0.7c-0.1-0.5-0.2-1-0.4-1.4c-0.2-0.4-0.4-0.9-0.7-1.2
			c-0.3-0.4-0.6-0.7-1-1c-0.4-0.3-0.8-0.5-1.2-0.7c-0.5-0.2-0.9-0.3-1.4-0.4c-0.5-0.1-1-0.1-1.5,0c-0.5,0.1-1,0.2-1.4,0.4
			c-0.4,0.2-0.9,0.4-1.2,0.7c-0.4,0.3-0.7,0.6-1,1c-0.3,0.4-0.5,0.8-0.7,1.2c-0.2,0.5-0.3,0.9-0.4,1.4c0,0.2,0,0.5,0,0.7
			c0,0.3-0.1,0.6-0.3,0.8c-0.2,0.2-0.5,0.3-0.8,0.3C18.3,38.9,18,38.8,17.8,38.6z M39.9,38.6c-0.2-0.2-0.3-0.5-0.3-0.8
			c0-0.2,0-0.4,0-0.5c0.1-0.8,0.2-1.6,0.5-2.3c0.2-0.4,0.3-0.8,0.6-1.2c0.2-0.4,0.5-0.7,0.8-1c1-1.2,2.4-2.1,3.8-2.5
			c0.4-0.1,0.9-0.2,1.3-0.2c0.4,0,0.7-0.1,1.1,0c0.8,0,1.6,0.2,2.4,0.4c0.7,0.3,1.4,0.6,2,1.1c0.3,0.3,0.7,0.5,1,0.8
			c0.3,0.3,0.6,0.6,0.8,1c0.9,1.3,1.4,2.9,1.4,4.5c0,0.3-0.1,0.6-0.3,0.8c-0.2,0.2-0.5,0.3-0.8,0.3c-0.3,0-0.6-0.1-0.8-0.3
			c-0.2-0.2-0.3-0.5-0.3-0.8c0-0.3,0-0.5,0-0.7c-0.1-0.5-0.2-1-0.4-1.4c-0.2-0.4-0.4-0.9-0.7-1.2c-0.3-0.4-0.6-0.7-1-1
			c-0.4-0.3-0.8-0.5-1.2-0.7c-0.5-0.2-0.9-0.3-1.4-0.4c-0.5-0.1-1-0.1-1.5,0c-0.5,0.1-1,0.2-1.4,0.4c-0.4,0.2-0.9,0.4-1.2,0.7
			c-0.4,0.3-0.7,0.6-1,1c-0.3,0.4-0.5,0.8-0.7,1.2c-0.2,0.5-0.3,0.9-0.4,1.4c0,0.2,0,0.5,0,0.7c0,0.3-0.1,0.6-0.3,0.8
			c-0.2,0.2-0.5,0.3-0.8,0.3C40.4,38.9,40.1,38.8,39.9,38.6z M16.7,50.1c-0.2-0.2-0.3-0.5-0.3-0.8c0-0.3,0.1-0.6,0.3-0.8
			c0.2-0.2,0.5-0.3,0.8-0.3c0.2,0,0.4,0,0.6,0c0.5-0.1,1-0.2,1.5-0.4c0.3-0.1,0.6-0.3,0.9-0.5c0.2-0.2,0.4-0.4,0.6-0.6
			c0.2-0.2,0.3-0.4,0.4-0.7c0-0.1,0-0.1,0.1-0.2c0.1-0.3,0.3-0.5,0.5-0.7c0.3-0.2,0.6-0.2,0.9-0.1c0.3,0.1,0.5,0.3,0.7,0.5
			c0.1,0.2,0.2,0.6,0.1,0.9c-0.3,0.8-0.7,1.5-1.3,2.1c-0.1,0.1-0.2,0.2-0.3,0.3c0.3,0.5,0.7,1,1.1,1.5c0.9,1.2,2,2.2,3.2,3.2
			c1.2,0.9,2.5,1.6,3.8,2.2c1.3,0.5,2.6,0.9,4,1.1c1.6,0.2,3.2,0.2,4.7,0c1.5-0.2,2.9-0.6,4.3-1.2c1.3-0.6,2.6-1.3,3.8-2.2
			c1.1-0.9,2.1-1.9,3-3c0.4-0.5,0.7-1,1-1.5c-0.2-0.2-0.5-0.4-0.7-0.6c-0.5-0.6-0.9-1.2-1.1-2c-0.1-0.3,0-0.6,0.1-0.9
			c0.1-0.3,0.4-0.4,0.7-0.5c0.3-0.1,0.6,0,0.9,0.1c0.3,0.1,0.4,0.4,0.5,0.7c0,0.1,0,0.1,0.1,0.2c0.1,0.2,0.2,0.5,0.4,0.7
			c0.2,0.2,0.4,0.4,0.6,0.6c0.3,0.2,0.6,0.4,0.9,0.5c0.5,0.2,1,0.3,1.5,0.4c0.2,0,0.4,0,0.6,0c0.3,0,0.6,0.1,0.8,0.3
			c0.2,0.2,0.3,0.5,0.3,0.8c0,0.3-0.1,0.6-0.3,0.8c-0.2,0.2-0.5,0.3-0.8,0.3c-0.4,0-0.7-0.1-1.1-0.1c-0.5-0.1-0.9-0.2-1.4-0.3
			c-0.1,0.2-0.2,0.4-0.3,0.5c-1.3,2-3,3.8-5,5.1C45.5,57,43.3,58,41,58.6c-1.3,0.3-2.7,0.5-4.1,0.5c-1.4,0-2.8-0.1-4.1-0.3
			c-2.6-0.5-5.1-1.6-7.3-3.2c-1-0.8-2-1.6-2.9-2.6c-0.9-1-1.7-2-2.4-3.1c-0.2,0.1-0.5,0.2-0.7,0.2c-0.7,0.2-1.3,0.3-2,0.3
			C17.2,50.4,16.9,50.3,16.7,50.1z"/>
	</defs>
	<clipPath id="SVGID_00000102519599208590525930000004062362466945485476_">
		<use xlink:href="#SVGID_00000056404410548891129500000007529201377370908552_"  style="overflow:visible;"/>
	</clipPath>
	<linearGradient id="SVGID_1_" gradientUnits="userSpaceOnUse" x1="-12.1487" y1="40.204" x2="86.4913" y2="40.204">
		<stop  offset="0" style="stop-color:#AB0BFF"/>
		<stop  offset="0.9404" style="stop-color:#F2295F"/>
	</linearGradient>
	
		<rect x="-12.1" y="-36.2" style="clip-path:url(#SVGID_00000102519599208590525930000004062362466945485476_);fill:url(#SVGID_1_);" width="98.6" height="152.8"/>
</g>
<g>
	<g>
		<path class="st0" d="M111.8,47.9c-1.5,0.7-3.3,1-5.3,1c-1.8,0-3.4-0.3-4.8-0.9c-1.4-0.6-2.7-1.4-3.7-2.5c-1-1.1-1.8-2.4-2.4-4
			c-0.5-1.5-0.8-3.2-0.8-5.1c0-1.7,0.3-3.4,0.9-4.8c0.6-1.5,1.4-2.8,2.5-3.9c1-1.1,2.2-2,3.6-2.6c1.4-0.6,2.8-0.9,4.3-0.9
			c1.9,0,3.6,0.4,5.1,1.1c1.5,0.7,2.6,1.4,3.5,2.1l3-7.2c-1.3-0.8-2.9-1.6-4.9-2.3c-2-0.7-4.3-1-6.9-1c-2.8,0-5.4,0.5-7.7,1.5
			c-2.3,1-4.3,2.4-6,4.1c-1.7,1.8-3,3.9-3.9,6.3c-0.9,2.4-1.4,5.1-1.4,8.1c0,2.6,0.4,5.1,1.3,7.4c0.9,2.3,2.2,4.3,3.8,6.1
			c1.7,1.8,3.7,3.2,6.1,4.2c2.4,1,5.2,1.6,8.2,1.7c2,0,3.8-0.2,5.5-0.6c1.7-0.5,3.1-1,4.2-1.6c1.1-0.6,1.9-1.1,2.4-1.4l-3.2-6.8
			C114.5,46.5,113.3,47.2,111.8,47.9z"/>
		<path class="st0" d="M156.4,22.7c-1.9-1.8-4-3.3-6.4-4.3c-2.4-1-5-1.6-7.7-1.6c-2.8,0-5.3,0.5-7.7,1.6c-2.4,1-4.5,2.5-6.3,4.3
			c-1.8,1.8-3.2,3.9-4.3,6.3c-1,2.4-1.5,4.9-1.5,7.5c0,2.7,0.5,5.3,1.5,7.6c1,2.4,2.4,4.5,4.3,6.3c1.8,1.8,3.9,3.2,6.3,4.2
			c2.4,1,5,1.5,7.7,1.5c2.7,0,5.3-0.5,7.7-1.5c2.4-1,4.5-2.4,6.4-4.2c1.9-1.8,3.3-3.9,4.3-6.3c1-2.4,1.6-4.9,1.6-7.6
			c0-2.7-0.5-5.2-1.6-7.5C159.7,26.7,158.2,24.6,156.4,22.7z M153.4,41.4c-0.6,1.5-1.4,2.8-2.5,3.9c-1.1,1.1-2.3,2-3.7,2.6
			c-1.4,0.6-3,0.9-4.6,0.9c-1.7,0-3.3-0.3-4.8-0.9c-1.5-0.6-2.8-1.5-3.9-2.6c-1.1-1.1-2-2.4-2.6-3.9c-0.6-1.5-0.9-3.1-0.9-4.8
			c0-1.7,0.3-3.4,0.9-4.9c0.6-1.5,1.4-2.8,2.5-4c1.1-1.1,2.4-2,3.8-2.6c1.4-0.6,3-0.9,4.7-0.9c1.7,0,3.3,0.3,4.7,0.9
			c1.4,0.6,2.7,1.5,3.8,2.6c1.1,1.1,1.9,2.5,2.5,4c0.6,1.5,0.9,3.1,0.9,4.9C154.3,38.3,154,39.9,153.4,41.4z"/>
		<path class="st0" d="M192.9,39.3c1.1-1.3,1.9-2.8,2.4-4.4c0.5-1.6,0.7-3.2,0.7-4.8c0-2-0.3-3.9-1-5.5c-0.7-1.6-1.7-3-3-4.2
			c-1.3-1.2-2.9-2-4.9-2.7c-1.9-0.6-4.2-0.9-6.6-0.9h-12v39.3h7.8V43.6h5.2l8.4,12.5h9.1l-9.3-14.3C191,41.1,192.1,40.3,192.9,39.3z
			 M176.3,24.3h5.6c1.4,0,2.5,0.2,3.3,0.7c0.8,0.5,1.4,1,1.8,1.7c0.4,0.7,0.7,1.3,0.8,2c0.1,0.7,0.2,1.2,0.2,1.6
			c0,0.6-0.1,1.2-0.3,1.8c-0.2,0.7-0.5,1.3-1,1.9c-0.5,0.6-1.1,1.1-1.9,1.5c-0.8,0.4-1.8,0.6-3,0.6h-5.6V24.3z"/>
		<path class="st0" d="M220.9,16.8l-17.9,39.3h7.7l3.2-7.7h13.2l3.1,7.7h9.1l-17.9-39.3H220.9z M216.6,41.9l4-9.6l3.8,9.6H216.6z"/>
		<polygon class="st0" points="251.9,48.7 251.9,16.8 244.1,16.8 244.1,56.1 270.6,56.1 270.6,48.7 		"/>
	</g>
	<g>
		<defs>
			<path id="SVGID_00000080895819821245100150000012311556513101039547_" d="M278.6,16.8h11.3v10.7l7.8-10.7h11.9l-14.1,20.4
				l2.6,3.6c2.8,3.8,9.2,5.9,11.4,5.9v10.1c-6.1,0-13.6-1.6-19.7-9.6v9.1h-11.3V16.8z M313.3,16.8h11.3v39.4h-11.3V16.8z
				 M347.7,16.8c14.9,0,20.1,9.2,20.1,20.3c0,15.8-13.6,19.1-20.7,19.1h-16.4V31.3c0-11.5,8.3-14.4,15.4-14.5H347.7z M347.8,46.2
				c5.4,0,8.9-3.5,8.9-9.5c0-7.7-2.6-9.9-10.2-9.9c-2.3,0-4.7,0.1-4.7,4.6v14.8H347.8z M385.7,16.8c7.2,0,14.3,2.7,14.3,14h-10.6
				c0-4.5-1.1-6.3-3.7-6.3c-1.9,0-3.7,0.8-3.7,3.1c0,5,18.9,3.7,18.9,15.6c0,7.2-4.1,12.9-15.2,12.9c-7.2,0-14.3-2.8-14.3-14.2H382
				c0,4.5,1.1,6.3,3.7,6.3c1.9,0,4.2-0.6,4.2-3.3c0-5-18.5-3-18.5-16.7C371.4,21,378.5,16.8,385.7,16.8z"/>
		</defs>
		<clipPath id="SVGID_00000143591056554195771920000013187755477403961227_">
			<use xlink:href="#SVGID_00000080895819821245100150000012311556513101039547_"  style="overflow:visible;"/>
		</clipPath>
		
			<linearGradient id="SVGID_00000093139143960950519850000012264418577517506217_" gradientUnits="userSpaceOnUse" x1="275.6967" y1="36.4906" x2="410.0949" y2="36.4906">
			<stop  offset="0" style="stop-color:#AB0BFF"/>
			<stop  offset="0.9404" style="stop-color:#F2295F"/>
		</linearGradient>
		
			<rect x="275.7" y="-39.9" style="clip-path:url(#SVGID_00000143591056554195771920000013187755477403961227_);fill:url(#SVGID_00000093139143960950519850000012264418577517506217_);" width="134.4" height="152.8"/>
	</g>
</g>
</svg>
